<svg xmlns="http://www.w3.org/2000/svg" viewBox="0 0 300 300"><g transform="translate(0,0)"><g>
    <g><circle cx="26.00" cy="17.50" r="7.48" fill="none" stroke="#faf6ee" stroke-width="2.2" /><circle cx="34.08" cy="23.37" r="7.48" fill="none" stroke="#faf6ee" stroke-width="2.2" /><circle cx="31.00" cy="32.88" r="7.48" fill="none" stroke="#faf6ee" stroke-width="2.2" /><circle cx="21.00" cy="32.88" r="7.48" fill="none" stroke="#faf6ee" stroke-width="2.2" /><circle cx="17.92" cy="23.37" r="7.48" fill="none" stroke="#faf6ee" stroke-width="2.2" /><circle cx="26" cy="26" r="4.08" fill="#d9c199" /></g>
    <circle cx="6" cy="50" r="2" fill="#faf6ee" />
    <circle cx="50" cy="6" r="2" fill="#faf6ee" />
  </g></g><g transform="translate(300,0) scale(-1,1)"><g>
    <g><circle cx="26.00" cy="17.50" r="7.48" fill="none" stroke="#faf6ee" stroke-width="2.2" /><circle cx="34.08" cy="23.37" r="7.48" fill="none" stroke="#faf6ee" stroke-width="2.2" /><circle cx="31.00" cy="32.88" r="7.48" fill="none" stroke="#faf6ee" stroke-width="2.2" /><circle cx="21.00" cy="32.88" r="7.48" fill="none" stroke="#faf6ee" stroke-width="2.2" /><circle cx="17.92" cy="23.37" r="7.48" fill="none" stroke="#faf6ee" stroke-width="2.2" /><circle cx="26" cy="26" r="4.08" fill="#d9c199" /></g>
    <circle cx="6" cy="50" r="2" fill="#faf6ee" />
    <circle cx="50" cy="6" r="2" fill="#faf6ee" />
  </g></g><g transform="translate(0,300) scale(1,-1)"><g>
    <g><circle cx="26.00" cy="17.50" r="7.48" fill="none" stroke="#faf6ee" stroke-width="2.2" /><circle cx="34.08" cy="23.37" r="7.48" fill="none" stroke="#faf6ee" stroke-width="2.2" /><circle cx="31.00" cy="32.88" r="7.48" fill="none" stroke="#faf6ee" stroke-width="2.2" /><circle cx="21.00" cy="32.88" r="7.48" fill="none" stroke="#faf6ee" stroke-width="2.2" /><circle cx="17.92" cy="23.37" r="7.48" fill="none" stroke="#faf6ee" stroke-width="2.2" /><circle cx="26" cy="26" r="4.08" fill="#d9c199" /></g>
    <circle cx="6" cy="50" r="2" fill="#faf6ee" />
    <circle cx="50" cy="6" r="2" fill="#faf6ee" />
  </g></g><g transform="translate(300,300) scale(-1,-1)"><g>
    <g><circle cx="26.00" cy="17.50" r="7.48" fill="none" stroke="#faf6ee" stroke-width="2.2" /><circle cx="34.08" cy="23.37" r="7.48" fill="none" stroke="#faf6ee" stroke-width="2.2" /><circle cx="31.00" cy="32.88" r="7.48" fill="none" stroke="#faf6ee" stroke-width="2.2" /><circle cx="21.00" cy="32.88" r="7.48" fill="none" stroke="#faf6ee" stroke-width="2.2" /><circle cx="17.92" cy="23.37" r="7.48" fill="none" stroke="#faf6ee" stroke-width="2.2" /><circle cx="26" cy="26" r="4.08" fill="#d9c199" /></g>
    <circle cx="6" cy="50" r="2" fill="#faf6ee" />
    <circle cx="50" cy="6" r="2" fill="#faf6ee" />
  </g></g><g transform="translate(60,0)"><g><path d="M 6 60 A 20 20 0 0 1 54 60" fill="none" stroke="#faf6ee" stroke-width="2.6" stroke-linecap="round" /><circle cx="30" cy="34" r="3.4" fill="#faf6ee" /><circle cx="6" cy="60" r="2.2" fill="#faf6ee" /><circle cx="54" cy="60" r="2.2" fill="#faf6ee" /><path d="M 0 60 L 60 60" stroke="#faf6ee" stroke-width="1.2" stroke-opacity="0.55" /><path d="M 66 60 A 20 20 0 0 1 114 60" fill="none" stroke="#faf6ee" stroke-width="2.6" stroke-linecap="round" /><circle cx="90" cy="34" r="3.4" fill="#faf6ee" /><circle cx="66" cy="60" r="2.2" fill="#faf6ee" /><circle cx="114" cy="60" r="2.2" fill="#faf6ee" /><path d="M 60 60 L 120 60" stroke="#faf6ee" stroke-width="1.2" stroke-opacity="0.55" /><path d="M 126 60 A 20 20 0 0 1 174 60" fill="none" stroke="#faf6ee" stroke-width="2.6" stroke-linecap="round" /><circle cx="150" cy="34" r="3.4" fill="#faf6ee" /><circle cx="126" cy="60" r="2.2" fill="#faf6ee" /><circle cx="174" cy="60" r="2.2" fill="#faf6ee" /><path d="M 120 60 L 180 60" stroke="#faf6ee" stroke-width="1.2" stroke-opacity="0.55" /></g></g><g transform="translate(60,300) scale(1,-1)"><g><path d="M 6 60 A 20 20 0 0 1 54 60" fill="none" stroke="#faf6ee" stroke-width="2.6" stroke-linecap="round" /><circle cx="30" cy="34" r="3.4" fill="#faf6ee" /><circle cx="6" cy="60" r="2.2" fill="#faf6ee" /><circle cx="54" cy="60" r="2.2" fill="#faf6ee" /><path d="M 0 60 L 60 60" stroke="#faf6ee" stroke-width="1.2" stroke-opacity="0.55" /><path d="M 66 60 A 20 20 0 0 1 114 60" fill="none" stroke="#faf6ee" stroke-width="2.6" stroke-linecap="round" /><circle cx="90" cy="34" r="3.4" fill="#faf6ee" /><circle cx="66" cy="60" r="2.2" fill="#faf6ee" /><circle cx="114" cy="60" r="2.2" fill="#faf6ee" /><path d="M 60 60 L 120 60" stroke="#faf6ee" stroke-width="1.2" stroke-opacity="0.55" /><path d="M 126 60 A 20 20 0 0 1 174 60" fill="none" stroke="#faf6ee" stroke-width="2.6" stroke-linecap="round" /><circle cx="150" cy="34" r="3.4" fill="#faf6ee" /><circle cx="126" cy="60" r="2.2" fill="#faf6ee" /><circle cx="174" cy="60" r="2.2" fill="#faf6ee" /><path d="M 120 60 L 180 60" stroke="#faf6ee" stroke-width="1.2" stroke-opacity="0.55" /></g></g><g transform="translate(0,60) rotate(-90) translate(-180,0)"><g><path d="M 6 60 A 20 20 0 0 1 54 60" fill="none" stroke="#faf6ee" stroke-width="2.6" stroke-linecap="round" /><circle cx="30" cy="34" r="3.4" fill="#faf6ee" /><circle cx="6" cy="60" r="2.2" fill="#faf6ee" /><circle cx="54" cy="60" r="2.2" fill="#faf6ee" /><path d="M 0 60 L 60 60" stroke="#faf6ee" stroke-width="1.2" stroke-opacity="0.55" /><path d="M 66 60 A 20 20 0 0 1 114 60" fill="none" stroke="#faf6ee" stroke-width="2.6" stroke-linecap="round" /><circle cx="90" cy="34" r="3.4" fill="#faf6ee" /><circle cx="66" cy="60" r="2.2" fill="#faf6ee" /><circle cx="114" cy="60" r="2.2" fill="#faf6ee" /><path d="M 60 60 L 120 60" stroke="#faf6ee" stroke-width="1.2" stroke-opacity="0.55" /><path d="M 126 60 A 20 20 0 0 1 174 60" fill="none" stroke="#faf6ee" stroke-width="2.6" stroke-linecap="round" /><circle cx="150" cy="34" r="3.4" fill="#faf6ee" /><circle cx="126" cy="60" r="2.2" fill="#faf6ee" /><circle cx="174" cy="60" r="2.2" fill="#faf6ee" /><path d="M 120 60 L 180 60" stroke="#faf6ee" stroke-width="1.2" stroke-opacity="0.55" /></g></g><g transform="translate(300,60) rotate(90)"><g><path d="M 6 60 A 20 20 0 0 1 54 60" fill="none" stroke="#faf6ee" stroke-width="2.6" stroke-linecap="round" /><circle cx="30" cy="34" r="3.4" fill="#faf6ee" /><circle cx="6" cy="60" r="2.2" fill="#faf6ee" /><circle cx="54" cy="60" r="2.2" fill="#faf6ee" /><path d="M 0 60 L 60 60" stroke="#faf6ee" stroke-width="1.2" stroke-opacity="0.55" /><path d="M 66 60 A 20 20 0 0 1 114 60" fill="none" stroke="#faf6ee" stroke-width="2.6" stroke-linecap="round" /><circle cx="90" cy="34" r="3.4" fill="#faf6ee" /><circle cx="66" cy="60" r="2.2" fill="#faf6ee" /><circle cx="114" cy="60" r="2.2" fill="#faf6ee" /><path d="M 60 60 L 120 60" stroke="#faf6ee" stroke-width="1.2" stroke-opacity="0.55" /><path d="M 126 60 A 20 20 0 0 1 174 60" fill="none" stroke="#faf6ee" stroke-width="2.6" stroke-linecap="round" /><circle cx="150" cy="34" r="3.4" fill="#faf6ee" /><circle cx="126" cy="60" r="2.2" fill="#faf6ee" /><circle cx="174" cy="60" r="2.2" fill="#faf6ee" /><path d="M 120 60 L 180 60" stroke="#faf6ee" stroke-width="1.2" stroke-opacity="0.55" /></g></g></svg>